/* XPM */
static char *aptosid_manual_16[] = {
/* columns rows colors chars-per-pixel */
"16 16 170 2 ",
"   c #531313",
".  c #5C1616",
"X  c #6A1B1B",
"o  c #771E1E",
"O  c #682F2F",
"+  c #7F2C2C",
"@  c #6C3432",
"#  c #704040",
"$  c #7D5151",
"%  c #821E1E",
"&  c #881C1C",
"*  c #8E1C1C",
"=  c #901C1C",
"-  c #901D1D",
";  c #901E1E",
":  c #941F1F",
">  c #971E1E",
",  c #961F1F",
"<  c #9B1D1D",
"1  c #991E1E",
"2  c #9C1D1D",
"3  c #A51B1B",
"4  c #A01C1C",
"5  c #A41C1C",
"6  c #A71C1C",
"7  c #822323",
"8  c #8F2020",
"9  c #992626",
"0  c #952828",
"q  c #952B2B",
"w  c #972F2F",
"e  c #8A3232",
"r  c #833C3C",
"t  c #843C3C",
"y  c #A02727",
"u  c #A92020",
"i  c #AA2323",
"p  c #AB2323",
"a  c #AB2727",
"s  c #AC2524",
"d  c #A62D2D",
"f  c #AA2E2E",
"g  c #AF2D2C",
"h  c #B12F2F",
"j  c #A63939",
"k  c #A53A38",
"l  c #B23131",
"z  c #B23535",
"x  c #B63939",
"c  c #B53B3B",
"v  c #B63C3C",
"b  c #B83A3A",
"n  c #BE3E3D",
"m  c #B9403F",
"M  c #954343",
"N  c #855C5D",
"B  c #AC4949",
"V  c #B24645",
"C  c #B64747",
"Z  c #B84140",
"A  c #BA4241",
"S  c #BA4342",
"D  c #BB4443",
"F  c #BA4645",
"G  c #BA4646",
"H  c #BC4745",
"J  c #B44848",
"K  c #B64E4E",
"L  c #BC4A4A",
"P  c #BD4B4A",
"I  c #BF4F4E",
"U  c #BD504E",
"Y  c #B65251",
"T  c #BF5656",
"R  c #BF5757",
"E  c #BB5857",
"W  c #BC5C5C",
"Q  c #876161",
"!  c #937171",
"~  c #907575",
"^  c #9F7576",
"/  c #AC7F7F",
"(  c #BE7A7A",
")  c #C05352",
"_  c #C25655",
"`  c #C35A59",
"'  c #C75D5C",
"]  c #C7605F",
"[  c #C46262",
"{  c #C56666",
"}  c #C66767",
"|  c #C96260",
" . c #CC6866",
".. c #C76C6C",
"X. c #C86968",
"o. c #C96968",
"O. c #CE6B69",
"+. c #C96C6A",
"@. c #CF6D6B",
"#. c #C96D6D",
"$. c #D06D6B",
"%. c #D06E6C",
"&. c #CB7676",
"*. c #CE7877",
"=. c #C27979",
"-. c #C67C7C",
";. c #CB7878",
":. c #CC7979",
">. c #CF7A79",
",. c #CE7C7C",
"<. c #CF7D7D",
"1. c #D07977",
"2. c #D27877",
"3. c #D17D7B",
"4. c #A18080",
"5. c #A29494",
"6. c #AE9797",
"7. c #B8B3B3",
"8. c #D58988",
"9. c #D08F8F",
"0. c #D58D8C",
"q. c #D58F8F",
"w. c #D78F8E",
"e. c #CA9B9B",
"r. c #DA9291",
"t. c #D79B9B",
"y. c #D49C9C",
"u. c #D89998",
"i. c #DC9B9A",
"p. c #DA9C9B",
"a. c #DC9C9B",
"s. c #DE9D9B",
"d. c #D89C9C",
"f. c #DD9C9C",
"g. c #DE9D9C",
"h. c #DDA6A6",
"j. c #D6AFAF",
"k. c #C1B6B6",
"l. c #D1BFBE",
"z. c #E1B2B2",
"x. c #E7BFBF",
"c. c #CACACA",
"v. c #CCCDCD",
"b. c #CDCDCD",
"n. c #CECECE",
"m. c gray81",
"M. c LightGray",
"N. c #D5D3D3",
"B. c #D8D8D8",
"V. c gray85",
"C. c gray86",
"Z. c #DDDDDD",
"A. c #E4C4C4",
"S. c #E7C5C5",
"D. c #E9C4C4",
"F. c #E7CBCB",
"G. c #EDD1D1",
"H. c #EED2D2",
"J. c #E7DFDF",
"K. c #E1E1E1",
"L. c #E6E6E6",
"P. c #E9E9E9",
"I. c #F4E3E3",
"U. c #F5E3E3",
"Y. c #F5E4E4",
"T. c #F5EAEA",
"R. c #FBF4F4",
"E. c #FEFCFC",
"W. c #FEFDFD",
"Q. c None",
/* pixels */
"Q.Q.Q.Q.Q.Q.Q.Q.Q.Q.G P Q.Q.Q.Q.",
"Q.E $.@.O. .| ' ] o.X.a.f Q.Q.Q.",
"Q.U 2.s.s.r.f.8.q.*.0.,.J Q.Q.Q.",
"Q.k @.s.i.>.3.>._ ` v l a Q.Q.Q.",
"Q.q n ) +.I I D Z c z g u Q.Q.Q.",
"Q.7 b D Z Z Z <.#.} R &.3 Q.Q.Q.",
"Q.o Y x G q.H.I.I.D.x.H.K = Q.Q.",
"Q.X B h } h.E._ a 5 5 4 2 * Q.Q.",
"Q.. 9 a u.I.>.u D W d , , 8 Q.Q.",
"Q.  V [ d.z.t.R.S.y.A.A.( * Q.Q.",
"Q.Q.P ..9.W.-.y 1 , : 0 j.e.Q.Q.",
"Q.Q.k &.T.=., , * & % e t / Q.Q.",
"Q.Q.w M ^ N ~ 5.7.v.V.K.P.J.Q.Q.",
"Q.Q.e L.K.Z.M.m.c.m.m.V.K.l.Q.Q.",
"Q.Q.t V.N.k.6.4.! Q $ # @ Q.Q.Q.",
"Q.Q.Q.O Q.Q.Q.Q.Q.Q.Q.Q.Q.Q.Q.Q."
};
