/* XPM */
static char *aptosid_manual[] = {
/* columns rows colors chars-per-pixel */
"32 32 160 2 ",
"   c #441010",
".  c #4E1313",
"X  c #541515",
"o  c #5C1616",
"O  c #631818",
"+  c #6A1B1B",
"@  c #741C1C",
"#  c #7C1C1C",
"$  c #7E1F20",
"%  c #6E2828",
"&  c #722727",
"*  c #7B2121",
"=  c #7C2A2A",
"-  c #7A3232",
";  c #7E3B3B",
":  c #7D4444",
">  c #8A1515",
",  c #821B1B",
"<  c #8D1D1D",
"1  c #951F1F",
"2  c #9B1D1D",
"3  c #A41C1C",
"4  c #A91E1E",
"5  c #832222",
"6  c #8C2121",
"7  c #912323",
"8  c #9E2323",
"9  c #932A2A",
"0  c #982928",
"q  c #863635",
"w  c #8C3737",
"e  c #833837",
"r  c #843C3B",
"t  c #913636",
"y  c #9B3131",
"u  c #983C3C",
"i  c #A32424",
"p  c #AB2424",
"a  c #AD2827",
"s  c #A12C2C",
"d  c #AE2C2B",
"f  c #B22D2D",
"g  c #A33535",
"h  c #A83232",
"j  c #A43C3B",
"k  c #AB3939",
"l  c #B33433",
"z  c #B93332",
"x  c #B53837",
"c  c #B63B3B",
"v  c #B83D3D",
"b  c #9A423F",
"n  c #B9403F",
"m  c #874040",
"M  c #8A4C4C",
"N  c #9C4B4B",
"B  c #845454",
"V  c #8E5252",
"C  c #A94444",
"Z  c #AD4F4F",
"A  c #B44443",
"S  c #BB4443",
"D  c #BD4847",
"F  c #B64D4D",
"G  c #BD4B4A",
"H  c #AE5353",
"J  c #A75B5B",
"K  c #B65252",
"L  c #BE5251",
"P  c #BC5C5C",
"I  c #8B6B6C",
"U  c #976666",
"Y  c #926A68",
"T  c #9B6C6C",
"R  c #947677",
"E  c #9D7E7D",
"W  c #AC6161",
"Q  c #A96A6A",
"!  c #BB6464",
"~  c #B06C6C",
"^  c #BD6B6A",
"/  c #BE7272",
"(  c #BB7B7B",
")  c #C04847",
"_  c #C44D4B",
"`  c #C1514F",
"'  c #C25453",
"]  c #C25857",
"[  c #C45A59",
"{  c #C95D5C",
"}  c #C6605F",
"|  c #CA615F",
" . c #C56363",
".. c #CB6463",
"X. c #CD6866",
"o. c #C56D6D",
"O. c #CD6B69",
"+. c #D56A67",
"@. c #D16D6B",
"#. c #CE716F",
"$. c #D1706E",
"%. c #CC7473",
"&. c #CD7877",
"*. c #CC7B7B",
"=. c #D07674",
"-. c #D27877",
";. c #D07C7B",
":. c #9B8888",
">. c #A58383",
",. c #AB8A8A",
"<. c #B98484",
"1. c #BF8F8F",
"2. c #AE9A98",
"3. c #ABA5A5",
"4. c #B8A3A3",
"5. c #BCAAAA",
"6. c #BDBEBE",
"7. c #CD8787",
"8. c #CF8E8E",
"9. c #D28483",
"0. c #D98380",
"q. c #D68C8B",
"w. c #D9908E",
"e. c #C29391",
"r. c #D49392",
"t. c #DA9594",
"y. c #D69A9A",
"u. c #DB9C9B",
"i. c #DCA09F",
"p. c #D4A3A3",
"a. c #DCA3A2",
"s. c #DEABAA",
"d. c #C3B8B7",
"f. c #D1B4B4",
"g. c #DAB0B0",
"h. c #E2ACAB",
"j. c #E4B0AF",
"k. c #E3B4B4",
"l. c #E6BBBB",
"z. c #D8C0BF",
"x. c #C6C6C6",
"c. c #CDC5C5",
"v. c #CBCBCB",
"b. c #D4D4D4",
"n. c #DBDBDB",
"m. c #E3C2C2",
"M. c #EAC4C3",
"N. c #EDCDCD",
"B. c #EED2D2",
"V. c #EEDEDE",
"C. c #F1D6D6",
"Z. c #E2E2E2",
"A. c #EEE7E7",
"S. c #EAEAEA",
"D. c #F5E3E3",
"F. c #F6EAEA",
"G. c #F3F3F3",
"H. c #F9F0F0",
"J. c #FEFEFE",
"K. c None",
/* pixels */
"K.K.K.K.K.K.K.K.K.K.K.K.K.K.K.K.K.K.K.K.K.K.K.K.K.K.K.K.K.K.K.K.",
"K.K.K.K.K.K.K.K.K.K.K.K.K.X.| { [ ' ` _ D S D L x K.K.K.K.K.K.K.",
"K.K.K.9.$.$.$.$.@.@.@.X...| { [ ' ` ` } %.n ` j.l K.K.K.K.K.K.K.",
"K.K.j r.X.O.O.O.X.X...$.=.{ X.[ ' w.r.O.9.&.u.B.x K.K.K.K.K.K.K.",
"K.K.y ^ { =.u.w.t.j.h.t.C.9.j.k.&.l.9.' a.u.l 7.[ i K.K.K.K.K.K.",
"K.K.9 C ' M.-.N.j.=.$.u.h.q.#.] u.q.q.r.a.&.w.k.;.p K.K.K.K.K.K.",
"K.K.7 C _ j.{ N.t.k.u.q.h.-.a.s.{ ;.a.` [ l v h d p K.K.K.K.K.K.",
"K.K.7 X._ $.h.w.9.u.$.` ` ] D D S v v x l f d d d i K.K.K.K.K.K.",
"K.K.5 +.| ` ` ` 9.;.D S G G G G G A A c c v x f p 4 K.K.K.K.K.K.",
"K.K.@ ] ;.` ] ' L ] [ ] G D S v v x l l f d p p 4 3 2 K.K.K.K.K.",
"K.K.+ A 8.) S D S S S n n v S y.s.a.a.v d f p 4 4 3 2 K.K.K.K.K.",
"K.K.o j ! v n n n n v n c ' k.L l f x l.K B.J.a.3 3 3 K.K.K.K.K.",
"K.K.X y C l c c c c s.M.*.D.k.k.k.N.D.J.J.J.J.J.y.3 2 K.K.K.K.K.",
"K.K.  9 0 f x l l %.k.L J.J.J.J.J.J.B.8.P k.H.o.k h 2 K.K.K.K.K.",
"K.K.K.9 g z z z l s.L N.J.J.j.o.S p 4 4 3 3 3 3 2 2 2 K.K.K.K.K.",
"K.K.K.6 =.) d d d a.9.J.J.H.f p 4 3 3 3 3 3 2 3 2 2 1 1 K.K.K.K.",
"K.K.K.5 +.X.a a d k.M.J.J.9.4 3 4 3 3 3 3 2 2 2 2 1 1 < K.K.K.K.",
"K.K.K.# ' 7.4 p y.J.J.J.p.4 3 l [ 7.s.p.7.^ s 2 2 7 1 7 K.K.K.K.",
"K.K.K.@ A ! 3 u.*.J.J.o.4 %.F.J.J.J.J.J.J.J.J.s.H 1 6 < K.K.K.K.",
"K.K.K.O j j 3 m.A J.J. .B.J.F.8.P k 8 s C / m.J.J.p.9 6 K.K.K.K.",
"K.K.K.o y 9 D *.F J.J.J.F.o.8 2 2 2 2 2 1 1 1 u l.J.D.u , K.K.K.",
"K.K.K.. 9 >  .K k J.J.N.g 2 2 2 2 1 1 1 1 < 7 < 5 ( J.V.t K.K.K.",
"K.K.K.K.7 j #.! p.J.m.0 2 2 2 1 1 1 1 1 < 6 6 6 6 5 ~ f.<.K.K.K.",
"K.K.K.K.6 0.7.J.J.H.g 1 1 1 1 7 < < , # * = r B Y E 2.d.K.K.K.K.",
"K.K.K.K.6 +.( W 1.N # = - : B I :.3.6.d.x.v.b.b.n.Z.S.G.K.K.K.K.",
"K.K.K.K.5 ' R 3.6.x.x.x.v.v.v.v.v.v.v.b.v.b.n.Z.Z.S.S.A.K.K.K.K.",
"K.K.K.K.@ Z v.n.Z.Z.Z.n.b.b.b.v.v.v.v.v.b.n.Z.Z.Z.Z.S.z.K.K.K.K.",
"K.K.K.K.+ J n.Z.n.n.n.b.b.v.v.x.x.x.v.x.x.x.v.b.n.Z.Z.e.K.K.K.K.",
"K.K.K.K.O Q n.n.n.b.b.b.b.b.n.n.Z.n.v.5.,.T V m r q w b K.K.K.K.",
"K.K.K.K.X Q n.b.n.c.4.>.U M m - % + O o . K.K.K.K.K.K.K.K.K.K.K.",
"K.K.K.K.K.5 q % + o X K.K.K.K.K.K.K.K.K.K.K.K.K.K.K.K.K.K.K.K.K.",
"K.K.K.K.K.K.K.K.K.K.K.K.K.K.K.K.K.K.K.K.K.K.K.K.K.K.K.K.K.K.K.K."
};
