<?xml version="1.0" encoding="UTF-8" standalone="no"?>
<!-- Generator: Adobe Illustrator 12.0.0, SVG Export Plug-In . SVG Version: 6.00 Build 51448)  -->

<svg
   xmlns:ns="http://ns.adobe.com/SaveForWeb/1.0/"
   xmlns:dc="http://purl.org/dc/elements/1.1/"
   xmlns:cc="http://creativecommons.org/ns#"
   xmlns:rdf="http://www.w3.org/1999/02/22-rdf-syntax-ns#"
   xmlns:svg="http://www.w3.org/2000/svg"
   xmlns="http://www.w3.org/2000/svg"
   xmlns:xlink="http://www.w3.org/1999/xlink"
   xmlns:sodipodi="http://sodipodi.sourceforge.net/DTD/sodipodi-0.dtd"
   xmlns:inkscape="http://www.inkscape.org/namespaces/inkscape"
   xml:space="preserve"
   enable-background="new 0 0 128 128"
   overflow="visible"
   viewBox="0 0 128 128"
   height="128"
   width="128"
   sodipodi:version="0.32"
   sodipodi:docname="aptosid-manual.svg"
   inkscape:output_extension="org.inkscape.output.svg.inkscape"
   inkscape:version="0.48+devel r"
   id="svg1877"
   version="1.1"><defs
   id="defs282"><linearGradient
     id="linearGradient4202"><stop
       style="stop-color:#ffffff;stop-opacity:1;"
       offset="0"
       id="stop4204" /><stop
       style="stop-color:#ffffff;stop-opacity:0.55696201;"
       offset="1"
       id="stop4206" /></linearGradient><linearGradient
     id="linearGradient4194"><stop
       style="stop-color:#8c0000;stop-opacity:1;"
       offset="0"
       id="stop4196" /><stop
       style="stop-color:#8c0000;stop-opacity:0.74683547;"
       offset="1"
       id="stop4198" /></linearGradient><linearGradient
     id="linearGradient3717"><stop
       id="stop3719"
       offset="0"
       style="stop-color:#696969;stop-opacity:0.15189873;" /><stop
       style="stop-color:#919191;stop-opacity:1;"
       offset="0.6046198"
       id="stop3721" /><stop
       id="stop3723"
       offset="1"
       style="stop-color:#bdbdbd;stop-opacity:0.39240506;" /></linearGradient><linearGradient
     id="linearGradient3709"><stop
       id="stop3711"
       offset="0"
       style="stop-color:#b3b3b3;stop-opacity:0.14901961;" /><stop
       style="stop-color:#919191;stop-opacity:1;"
       offset="0.66884249"
       id="stop3713" /><stop
       id="stop3715"
       offset="1"
       style="stop-color:#bdbdbd;stop-opacity:0.39240506;" /></linearGradient><linearGradient
     id="linearGradient3869"><stop
       id="stop3871"
       offset="0"
       style="stop-color:#696969;stop-opacity:0.15189873;" /><stop
       style="stop-color:#919191;stop-opacity:1;"
       offset="0.67074138"
       id="stop3873" /><stop
       id="stop3875"
       offset="1"
       style="stop-color:#bdbdbd;stop-opacity:0.39240506;" /></linearGradient><linearGradient
     id="linearGradient3851"><stop
       style="stop-color:#696969;stop-opacity:0.15189873;"
       offset="0"
       id="stop3853" /><stop
       id="stop3859"
       offset="0.5"
       style="stop-color:#919191;stop-opacity:1;" /><stop
       style="stop-color:#bdbdbd;stop-opacity:0.39240506;"
       offset="1"
       id="stop3855" /></linearGradient><linearGradient
     id="linearGradient3081"><stop
       style="stop-color:#610000;stop-opacity:1;"
       offset="0"
       id="stop3083" /><stop
       style="stop-color:#540000;stop-opacity:1;"
       offset="1"
       id="stop3085" /></linearGradient><filter
     inkscape:collect="always"
     id="filter3051"><feGaussianBlur
       inkscape:collect="always"
       stdDeviation="0.12874266"
       id="feGaussianBlur3053" /></filter><clipPath
     clipPathUnits="userSpaceOnUse"
     id="clipPath3069"><path
       id="path3071"
       d="M 115.446,90.505 L 107.6565,47.931 C 107.6565,47.931 12.50575,38.7485 15.292875,67.0105 C 18.08,95.2725 20.838,102.044 24.712,101.703 L 111.705,93.216 L 113.066,93.083 C 115.187,92.69 115.683,92.251 115.446,90.505 z"
       style="fill:#e20071"
       sodipodi:nodetypes="ccscccc" /></clipPath><filter
     inkscape:collect="always"
     id="filter3077"><feGaussianBlur
       inkscape:collect="always"
       stdDeviation="0.39699429"
       id="feGaussianBlur3079" /></filter><linearGradient
     inkscape:collect="always"
     xlink:href="#linearGradient3081"
     id="linearGradient3087"
     x1="20.673505"
     y1="96.192035"
     x2="115.49258"
     y2="96.192035"
     gradientUnits="userSpaceOnUse" /><linearGradient
     inkscape:collect="always"
     xlink:href="#linearGradient3851"
     id="linearGradient3857"
     x1="66.156647"
     y1="113.687"
     x2="109.881"
     y2="113.687"
     gradientUnits="userSpaceOnUse" /><linearGradient
     inkscape:collect="always"
     xlink:href="#linearGradient3869"
     id="linearGradient3867"
     x1="25.990999"
     y1="111.687"
     x2="109.881"
     y2="111.687"
     gradientUnits="userSpaceOnUse" /><linearGradient
     inkscape:collect="always"
     xlink:href="#linearGradient3851"
     id="linearGradient3883"
     x1="44.886406"
     y1="108.75771"
     x2="90.469322"
     y2="109.687"
     gradientUnits="userSpaceOnUse" /><linearGradient
     inkscape:collect="always"
     xlink:href="#linearGradient3851"
     id="linearGradient3891"
     x1="50.255592"
     y1="98.034943"
     x2="109.881"
     y2="99.686996"
     gradientUnits="userSpaceOnUse" /><linearGradient
     inkscape:collect="always"
     xlink:href="#linearGradient3851"
     id="linearGradient3899"
     x1="35.847527"
     y1="105.32194"
     x2="109.881"
     y2="105.687"
     gradientUnits="userSpaceOnUse" /><linearGradient
     inkscape:collect="always"
     xlink:href="#linearGradient3717"
     id="linearGradient3907"
     x1="25.990999"
     y1="107.687"
     x2="109.881"
     y2="107.687"
     gradientUnits="userSpaceOnUse" /><linearGradient
     inkscape:collect="always"
     xlink:href="#linearGradient3851"
     id="linearGradient2937"
     x1="25.990999"
     y1="101.687"
     x2="109.881"
     y2="101.687"
     gradientUnits="userSpaceOnUse" /><linearGradient
     inkscape:collect="always"
     xlink:href="#linearGradient3709"
     id="linearGradient3326"
     x1="25.990999"
     y1="103.687"
     x2="109.881"
     y2="103.687"
     gradientUnits="userSpaceOnUse" /><filter
     inkscape:collect="always"
     id="filter4128"><feGaussianBlur
       inkscape:collect="always"
       stdDeviation="0.1344975"
       id="feGaussianBlur4130" /></filter><filter
     inkscape:collect="always"
     x="-0.0627307"
     width="1.1254614"
     y="-0.20440804"
     height="1.4088161"
     id="filter4132"><feGaussianBlur
       inkscape:collect="always"
       stdDeviation="2.3882525"
       id="feGaussianBlur4134" /></filter><filter
     inkscape:collect="always"
     id="filter4188"><feGaussianBlur
       inkscape:collect="always"
       stdDeviation="2.2899436"
       id="feGaussianBlur4190" /></filter><linearGradient
     inkscape:collect="always"
     xlink:href="#linearGradient3081"
     id="linearGradient4192"
     gradientUnits="userSpaceOnUse"
     x1="20.673505"
     y1="96.192035"
     x2="115.49258"
     y2="96.192035" /><linearGradient
     inkscape:collect="always"
     xlink:href="#linearGradient4194"
     id="linearGradient4200"
     x1="20"
     y1="24"
     x2="99.5"
     y2="24"
     gradientUnits="userSpaceOnUse" /><linearGradient
     inkscape:collect="always"
     xlink:href="#linearGradient4202"
     id="linearGradient4208"
     x1="20"
     y1="25"
     x2="99.5"
     y2="25"
     gradientUnits="userSpaceOnUse" /></defs><sodipodi:namedview
   inkscape:window-height="1148"
   inkscape:window-width="1920"
   inkscape:pageshadow="2"
   inkscape:pageopacity="0.0"
   guidetolerance="10.0"
   gridtolerance="10.0"
   objecttolerance="10.0"
   borderopacity="1.0"
   bordercolor="#666666"
   pagecolor="#ffffff"
   id="base"
   inkscape:zoom="1"
   inkscape:cx="71.953231"
   inkscape:cy="96.623888"
   inkscape:window-x="-4"
   inkscape:window-y="-3"
   inkscape:current-layer="svg1877"
   showgrid="true"
   inkscape:snap-global="false"
   inkscape:window-maximized="1"><inkscape:grid
     type="xygrid"
     id="grid103179"
     empspacing="4"
     visible="true"
     enabled="true" /></sodipodi:namedview>
<metadata
   id="metadata1882">
	<rdf:RDF>
		<cc:Work
   rdf:about="">
			<dc:format>image/svg+xml</dc:format>
			<dc:type
   rdf:resource="http://purl.org/dc/dcmitype/StillImage" />
		<dc:title /></cc:Work>
	</rdf:RDF>
	<ns:sfw>
		<ns:slices />
		<ns:sliceSourceBounds
   x="8"
   y="3"
   height="121"
   width="113.736"
   bottomLeftOrigin="true" />
	</ns:sfw>
</metadata>
<filter
   id="AI_Sfocatura_3">
	<feGaussianBlur
   stdDeviation="3"
   id="feGaussianBlur5" />
</filter>
<linearGradient
   id="path2797_1_"
   gradientUnits="userSpaceOnUse"
   x1="66.3574"
   y1="118.2754"
   x2="66.3574"
   y2="99.0564"
   gradientTransform="translate(0,-1)">
	<stop
   offset="0"
   style="stop-color:#DEDEDE"
   id="stop8" />
	<stop
   offset="1"
   style="stop-color:#FFFFFF"
   id="stop10" />
</linearGradient>
<path
   style="opacity:0.6;fill:#000000;fill-opacity:1;filter:url(#filter4188)"
   d="M 97.375,3.5 C 97.147705,3.508416 96.889875,3.538125 96.625,3.5625 L 15.0625,9.84375 L 13.8125,10.25 L 12.6875,10.21875 L 10.65625,10.40625 C 9.1452499,10.54625 8.067,13.16275 7.75,14.84375 C 7.4329999,16.52475 7.5,26.15625 7.5,26.15625 L 18.4375,119.125 C 18.913501,121.244 19.83525,124.80275 22.03125,124.46875 L 22.8125,124.375 L 22.8125,124.40625 L 109.59375,115.5625 C 111.71375,115.3685 113.1765,113.77625 112.9375,112.03125 L 112.09375,93.1875 L 113.0625,93.09375 C 115.1835,92.70075 115.6745,92.246 115.4375,90.5 L 99.875,5.34375 C 99.666753,3.8160001 98.966064,3.4410879 97.375,3.5 z"
   id="path4186"
   transform="matrix(0.9870646,0,0,0.9451576,-0.9030608,6.8273745)" /><path
   id="path2797"
   sodipodi:nodetypes="ccccc"
   d="M 111.992,92.187 C 111.992,92.187 112.508,107.358 110.281,111.728 L 22.479,121.437 C 19.083,121.955 20.838,101.044 24.712,100.703 L 111.992,92.187 z"
   style="fill:url(#path2797_1_)" />
<g
   id="g13"
   transform="translate(-20,-1)">
	<defs
   id="defs15"><path
     id="path2797_2_"
     sodipodi:nodetypes="ccccc"
     d="M 111.992,92.226 C 111.992,92.226 112.508,107.397 110.281,111.767 L 22.479,121.476 C 19.083,121.994 20.838,101.083 24.712,100.743 L 111.992,92.226 z" /></defs>
	<clipPath
   id="path2797_3_">
		<use
   xlink:href="#path2797_2_"
   id="use19"
   x="0"
   y="0"
   width="128"
   height="128" />
	</clipPath>
	<g
   clip-path="url(#path2797_3_)"
   id="g21"
   style="filter:url(#filter4132)"
   transform="translate(20,0)">
		<linearGradient
   id="XMLID_1_"
   gradientUnits="userSpaceOnUse"
   x1="20.4004"
   y1="105.2852"
   x2="112.043"
   y2="105.2852">
			<stop
   offset="0.3195"
   style="stop-color:#2E3436"
   id="stop24" />
			<stop
   offset="1"
   style="stop-color:#888A85"
   id="stop26" />
		</linearGradient>
		<path
   d="M 25.677,102.664 L 112.043,94.237 C 112.032,92.443 111.992,90.303 111.992,90.303 L 23.748,98.82 C 20.168,99.134 19.364,117.966 21.797,120.267 C 21.089,114.534 22.796,102.917 25.677,102.664 z"
   id="path28"
   style="fill:url(#XMLID_1_)" />
	</g>
</g>
<radialGradient
   id="XMLID_3_"
   cx="23.4214"
   cy="-24.1943"
   r="152.103"
   gradientTransform="matrix(1,0,0,0.9966,0,-0.7838)"
   gradientUnits="userSpaceOnUse">
	<stop
   offset="0.0533"
   style="stop-color:#E29390"
   id="stop31" />
	<stop
   offset="0.6627"
   style="stop-color:#A71B1B"
   id="stop33" />
	<stop
   offset="0.9053"
   style="stop-color:#8A2121"
   id="stop35" />
</radialGradient>
<path
   d="M 115.446,89.505 L 99.867,4.357 C 99.629,2.611 98.75,2.361 96.631,2.556 L 15.069,8.845 L 13.819,9.255 L 12.674,9.226 L 10.663,9.399 C 9.152,9.539 21.056,122.517 21.056,122.517 L 22.479,121.437 C 19.083,121.955 20.838,101.044 24.712,100.703 L 111.705,92.216 L 113.066,92.083 C 115.187,91.69 115.683,91.251 115.446,89.505 z"
   id="path37"
   style="fill:url(#XMLID_3_)" /><path
   style="fill:#ffffff"
   d="M 68.8125 39.84375 C 59.385768 40.012207 50.65625 51.28125 50.65625 51.28125 C 36.288862 39.424003 36.375 67.1875 36.375 67.1875 C 23.009272 73.356019 26.46875 95.25 26.46875 95.25 L 30.65625 96.15625 C 30.147356 97.153113 29.690119 98.184336 29.25 99.21875 L 36.90625 98.4375 C 44.056318 85.028599 58.356981 75.875 74.875 75.875 C 88.285206 75.874999 100.22214 81.930806 108.0625 91.375 L 115.4375 90.65625 C 115.45852 90.551974 115.49493 90.434235 115.5 90.3125 C 106.56634 77.604107 91.701727 69.28125 74.875 69.28125 C 62.909429 69.281251 51.913317 73.463722 43.34375 80.46875 C 44.944412 75.91948 46.0625 72.21875 46.0625 72.21875 C 51.987152 73.522803 57.90625 57.84375 57.90625 57.84375 C 63.041177 58.973971 83 52.625 83 52.625 C 82.999997 52.624998 89.590202 59.438641 92.78125 54.34375 C 95.972949 49.250017 102.5625 54.4375 102.5625 54.4375 C 87.343136 33.282309 83.15625 48.5 83.15625 48.5 L 78.9375 45.09375 C 75.725402 41.196885 72.222091 39.782822 68.8125 39.84375 z M 68.9375 42.09375 C 75.486534 41.888547 77.90625 48.125139 77.90625 48.125 C 74.901396 50.046514 54.96875 49.53125 54.96875 49.53125 C 60.941176 44.076743 65.507184 42.201243 68.9375 42.09375 z M 46.53125 51.28125 C 47.964405 51.236609 49 51.78125 49 51.78125 L 41.75 62.78125 C 39.998148 64.682156 40.979739 66.822612 42.09375 68.28125 C 42.964333 68.975428 43.650824 69.621981 43.6875 69.96875 C 43.687501 69.968749 42.867238 69.293851 42.09375 68.28125 C 40.474891 66.990308 38.21875 65.5625 38.21875 65.5625 C 39.585776 53.576177 43.795238 51.366489 46.53125 51.28125 z M 36.375 70.03125 C 33.588271 73.573531 35.6875 88.843552 35.6875 88.84375 L 28.5 92.125 C 27.580261 79.124573 34.908229 71.440251 36.375 70.03125 z "
   id="path11051" />
<linearGradient
   id="XMLID_4_"
   gradientUnits="userSpaceOnUse"
   x1="8.9722"
   y1="68.4072"
   x2="19.3589"
   y2="67.0882"
   gradientTransform="translate(0,-1)">
	<stop
   offset="0.3136"
   style="stop-color:#8A2121"
   id="stop40" />
	<stop
   offset="0.5367"
   style="stop-color:#8C2323"
   id="stop42" />
	<stop
   offset="0.6399"
   style="stop-color:#942A2A"
   id="stop44" />
	<stop
   offset="0.7185"
   style="stop-color:#A03636"
   id="stop46" />
	<stop
   offset="0.7845"
   style="stop-color:#B34846"
   id="stop48" />
	<stop
   offset="0.8422"
   style="stop-color:#CA5E5C"
   id="stop50" />
	<stop
   offset="0.8639"
   style="stop-color:#D56966"
   id="stop52" />
	<stop
   offset="0.9172"
   style="stop-color:#E29390"
   id="stop54" />
	<stop
   offset="1"
   style="stop-color:#7A1212"
   id="stop56" />
</linearGradient>
<path
   d="M 22.479,121.437 C 19.083,121.955 20.838,101.044 24.712,100.703 C 24.712,100.703 12.676,9.23 12.674,9.227 L 10.663,9.4 C 9.152,9.54 8.059,12.171 7.742,13.852 C 7.425,15.533 7.511,25.165 7.511,25.165 L 18.446,118.115 C 18.922,120.234 19.825,123.813 22.021,123.479 L 25.563,123.093 L 26.592,120.982 L 22.479,121.437 z"
   id="path58"
   style="fill:url(#XMLID_4_)" />
<linearGradient
   id="XMLID_5_"
   gradientUnits="userSpaceOnUse"
   x1="17.644"
   y1="56.1646"
   x2="24.7346"
   y2="55.168"
   gradientTransform="translate(0,-1)">
	<stop
   offset="0"
   style="stop-color:#9C0F0F"
   id="stop61" />
	<stop
   offset="0.316"
   style="stop-color:#FFFFFF"
   id="stop63" />
	<stop
   offset="0.6029"
   style="stop-color:#BF0303"
   id="stop65" />
</linearGradient>
<path
   d="M 24.712,100.702 L 28.244,100.359 L 15.431,8.817 L 15.07,8.845 L 13.82,9.255 L 12.675,9.226 L 11.839,9.298 L 24.367,100.791 C 24.479,100.744 24.595,100.713 24.712,100.702 z"
   id="path67"
   style="opacity:0.5;fill:url(#XMLID_5_)" />
<g
   id="g69"
   transform="translate(0,-1)">
	<g
   id="g71">
		<linearGradient
   id="XMLID_6_"
   gradientUnits="userSpaceOnUse"
   x1="70.734398"
   y1="116.3115"
   x2="111.5255"
   y2="90.542198">
			<stop
   offset="0.3136"
   style="stop-color:#8A2121"
   id="stop74" />
			<stop
   offset="0.4265"
   style="stop-color:#8E2525"
   id="stop76" />
			<stop
   offset="0.5426"
   style="stop-color:#9A3130"
   id="stop78" />
			<stop
   offset="0.6601"
   style="stop-color:#AF4543"
   id="stop80" />
			<stop
   offset="0.7779"
   style="stop-color:#CC605D"
   id="stop82" />
			<stop
   offset="0.8107"
   style="stop-color:#D56966"
   id="stop84" />
			<stop
   offset="1"
   style="stop-color:#E29390"
   id="stop86" />
		</linearGradient>
		<path
   d="M 112.942,112.02 L 112.096,93.082 L 111.992,93.186 C 111.992,93.186 112.508,108.357 110.281,112.727 L 22.479,122.436 L 22.797,124.393 L 109.6,115.556 C 111.72,115.362 113.181,113.765 112.942,112.02 z"
   id="path88"
   style="fill:url(#XMLID_6_)" />
	</g>
</g>
<g
   id="g90"
   clip-path="url(#clipPath3069)"
   style="fill:url(#linearGradient3087);fill-opacity:1;filter:url(#filter3077)"
   transform="translate(0,-1)">
	<linearGradient
   id="XMLID_7_"
   gradientUnits="userSpaceOnUse"
   x1="115.4932"
   y1="103.2646"
   x2="20.6738"
   y2="103.2647">
		<stop
   offset="0"
   style="stop-color:#590000;fill-opacity:1;fill:url(#linearGradient3087)"
   id="stop93" />
		<stop
   offset="0.9053"
   style="stop-color:#8A2121;fill-opacity:1;fill:url(#linearGradient3087)"
   id="stop95" />
	</linearGradient>
	<path
   d="M 113.066,92.121 L 111.705,92.254 L 24.712,100.742 C 22.206,100.962 20.588,109.793 20.677,115.86 C 20.758,109.864 22.335,101.913 24.712,101.702 L 111.705,93.215 L 113.066,93.082 C 115.113,92.704 115.639,92.27 115.46,90.669 C 115.305,91.514 114.629,91.831 113.066,92.121 z"
   id="path97"
   style="fill:url(#linearGradient4192);fill-opacity:1" />
</g>
<linearGradient
   id="XMLID_8_"
   gradientUnits="userSpaceOnUse"
   x1="22.2095"
   y1="122.4463"
   x2="22.2095"
   y2="101.7021"
   gradientTransform="translate(0,-1)">
	<stop
   offset="0"
   style="stop-color:#9C0F0F"
   id="stop100" />
	<stop
   offset="1"
   style="stop-color:#FF8080"
   id="stop102" />
</linearGradient>



<line
   x1="100.65312"
   y1="31.501999"
   x2="22.153135"
   y2="38.498001"
   id="line261"
   style="opacity:0.5;fill:none;stroke:url(#linearGradient4208);stroke-linecap:round" />
<line
   x1="100.65312"
   y1="30.501999"
   x2="22.153135"
   y2="37.498001"
   id="line263"
   style="opacity:0.5;fill:none;stroke:url(#linearGradient4200);stroke-linecap:round" />







<g
   id="g3725"
   style="opacity:1;filter:url(#filter4128)"
   transform="translate(0,-1)"><line
     style="fill:none;stroke:url(#linearGradient3326)"
     id="line265"
     y2="99.333"
     x2="109.381"
     y1="108.041"
     x1="26.490999" /><line
     style="fill:none;stroke:url(#linearGradient2937)"
     id="line267"
     y2="97.333"
     x2="109.381"
     y1="106.041"
     x1="26.490999" /><line
     style="fill:none;stroke:url(#linearGradient3891)"
     id="line269"
     y2="95.333"
     x2="109.381"
     y1="104.041"
     x1="26.490999" /><line
     style="fill:none;stroke:url(#linearGradient3899)"
     id="line271"
     y2="101.333"
     x2="109.381"
     y1="110.041"
     x1="26.490999" /><line
     style="fill:none;stroke:url(#linearGradient3907)"
     id="line273"
     y2="103.333"
     x2="109.381"
     y1="112.041"
     x1="26.490999" /><line
     style="fill:none;stroke:url(#linearGradient3883)"
     id="line275"
     y2="105.333"
     x2="109.381"
     y1="114.041"
     x1="26.490999" /><line
     style="fill:none;stroke:url(#linearGradient3867)"
     id="line277"
     y2="107.333"
     x2="109.381"
     y1="116.041"
     x1="26.490999" /><line
     style="fill:none;stroke:url(#linearGradient3857);stroke-linecap:round"
     id="line279"
     y2="109.333"
     x2="109.381"
     y1="118.041"
     x1="26.490999" /></g>
<path
   d="M 24.712,100.702 L 23.748,100.702 C 19.874,101.044 18.118,121.954 21.515,121.436 L 22.074,121.374 C 19.24,120.184 21.005,101.029 24.712,100.702 z"
   id="path104"
   style="fill:url(#XMLID_8_);filter:url(#filter3051)" />
<g
   style="fill:#ffffff;fill-opacity:1;display:inline"
   transform="matrix(0.17426957,-0.01585614,0.03121198,0.17565571,-43.58651,-240.83128)"
   id="aptosid"
   inkscape:label="aptosid"><text
     xml:space="preserve"
     style="font-size:144px;font-style:normal;font-variant:normal;font-weight:bold;font-stretch:normal;text-align:start;line-height:125%;letter-spacing:0px;word-spacing:0px;writing-mode:lr-tb;text-anchor:start;fill:#ffffff;fill-opacity:1;stroke:none;font-family:Dustismo;-inkscape-font-specification:Dustismo Bold"
     x="246.53732"
     y="1555.3855"
     id="text3113"
     sodipodi:linespacing="125%"
     inkscape:export-filename="logo-current.png"
     inkscape:export-xdpi="90"
     inkscape:export-ydpi="90"><tspan
       sodipodi:role="line"
       id="tspan3115"
       x="246.53732"
       y="1555.3855"
       dx="0 0 26.252148"><tspan
         dx="-0.98228282 -4.3535538 121.26881"
         style="font-size:144px;font-style:normal;font-variant:normal;font-weight:bold;font-stretch:normal;text-align:start;line-height:125%;writing-mode:lr-tb;text-anchor:start;fill:#ffffff;fill-opacity:1;stroke:none;font-family:Dustismo;-inkscape-font-specification:Dustismo Bold"
         id="tspan3117">to </tspan></tspan></text>
<path
     sodipodi:nodetypes="ccccc"
     inkscape:connector-curvature="0"
     id="path4055"
     d="m 448.25844,1456.6341 9.895,9.894 -9.895,9.895 -9.894,-9.895 z"
     style="fill:#ffffff;fill-opacity:1;fill-rule:nonzero;stroke:none" /><path
     inkscape:export-ydpi="90"
     inkscape:export-xdpi="90"
     inkscape:export-filename="logo-current.png"
     sodipodi:nodetypes="cccccccccsccccscccscscs"
     inkscape:connector-curvature="0"
     id="path3127"
     d="m 207.94439,1485.6954 c -9.0469,10e-5 -16.51565,3.5156 -22.375,10.5 l 0,-9 -11.32858,0 0,83.875 -13.21875,0 0,11.5937 24.54733,0 0,-36.2812 c 5.85935,6.9844 13.3281,10.4687 22.375,10.4687 9.4687,0 17.54682,-3.5625 24.25,-10.6875 6.56243,-7.0313 9.84368,-15.2968 9.84375,-24.8125 -7e-5,-9.5155 -3.28132,-17.7968 -9.84375,-24.875 -6.70318,-7.1718 -14.7813,-10.7811 -24.25,-10.7812 z m 0,11.625 c 6.28121,0 11.62495,2.4531 16.03125,7.375 4.26557,4.7813 6.37494,10.3282 6.375,16.6562 -6e-5,6.2813 -2.15631,11.7969 -6.46875,16.5313 -4.45318,4.9219 -9.75004,7.375 -15.9375,7.375 -6.23441,0 -11.53128,-2.4531 -15.84375,-7.375 -4.12502,-4.6875 -6.18752,-10.2031 -6.1875,-16.5313 -2e-5,-6.3749 2.04685,-11.9218 6.125,-16.6562 4.31247,-4.9219 9.62497,-7.375 15.90625,-7.375 z"
     style="fill:#ffffff;fill-opacity:1;fill-rule:nonzero;stroke:none" /><path
     inkscape:export-ydpi="90"
     inkscape:export-xdpi="90"
     inkscape:export-filename="logo-current.png"
     sodipodi:nodetypes="ccccccssscccccsscccscscs"
     inkscape:connector-curvature="0"
     id="path3129"
     d="m 508.45717,1459.9767 0,11.5937 13.25,0 0,24.625 c -5.5313,-6.9844 -12.89068,-10.4999 -22.125,-10.5 -9.51566,10e-5 -17.90627,3.5626 -25.125,10.6875 -7.17188,7.1251 -10.75,15.4532 -10.75,24.9687 0,9.5157 3.54687,17.8282 10.625,24.9063 7.0781,7.0781 15.35935,10.5937 24.875,10.5937 9.14058,0 16.64057,-3.4843 22.5,-10.4687 l 0,9 11.35225,0 0,-95.4062 z m -10.0625,37.3437 c 0.39002,-0.019 0.79199,0 1.1875,0 6.2812,0 11.53119,2.4531 15.75,7.375 4.03119,4.7344 6.03119,10.2813 6.03125,16.6562 -6e-5,6.3282 -2.07819,11.8594 -6.25,16.5938 -4.35943,4.875 -9.67192,7.3125 -15.90625,7.3125 -6.32815,0 -11.89065,-2.375 -16.71875,-7.1563 -4.78127,-4.8281 -7.18751,-10.4218 -7.1875,-16.75 -1e-5,-6.328 2.48435,-11.8906 7.40625,-16.7187 4.61423,-4.5704 9.83725,-7.0269 15.6875,-7.3125 z"
     style="fill:#ffffff;fill-opacity:1;fill-rule:nonzero;stroke:none" /><path
     inkscape:export-ydpi="90"
     inkscape:export-xdpi="90"
     inkscape:export-filename="logo-current.png"
     sodipodi:nodetypes="ccscccsscscccsssscsaczsccc"
     d="m 414.17377,1509.6121 c -0.2813,-4.3126 -2.7422,-7.5235 -7.3829,-9.6328 -3.6093,-1.6407 -7.8749,-2.461 -12.7968,-2.461 -3.5625,0 -6.9844,0.6563 -10.2657,1.9688 -4.3124,1.6875 -6.4687,4.0078 -6.4687,6.9609 0,3.1406 2.4141,5.5547 7.2422,7.2422 3.0469,1.0781 7.0473,1.1402 14.8125,2.1078 15.0809,1.8793 25.2899,7.7759 25.5469,20.3922 0.1345,6.608 -3.2813,11.8359 -9.8438,15.6797 -5.4843,3.2343 -11.8125,4.8515 -18.9844,4.8515 -7.8749,0 -14.578,-1.5938 -20.1093,-4.7812 -6.4687,-3.7032 -10.2187,-9.1641 -11.25,-16.3828 l 11.3203,-2.3906 c 1.1719,5.1093 4.4297,8.6015 9.1524,10.1015 4.7226,1.5 8.0365,1.9757 11.7382,1.875 4.5938,-0.125 9.0781,-1.3672 11.6524,-2.836 2.7293,-1.5573 4.5495,-3.0879 4.6523,-5.6952 0.1829,-4.6371 -3.9067,-7.2691 -12.2504,-8.7691 -6.0938,-0.75 -12.519,-1.2319 -18.6168,-2.6919 -4.9423,-1.1833 -9.4489,-3.0019 -12.5859,-6.539 -2.874,-3.2406 -4.5703,-6.586 -4.5703,-12.1641 0,-5.6719 2.4141,-10.1484 7.8164,-14.1328 5.4024,-3.9844 12.7852,-6.3281 21.5039,-6.3281 7.8282,0 14.4844,1.5937 19.9688,4.7812 6.4218,3.75 10.1484,9.2109 11.1796,16.3828 l -11.4609,2.461"
     style="font-size:144px;font-style:normal;font-variant:normal;font-weight:bold;font-stretch:normal;text-align:start;line-height:125%;letter-spacing:0px;word-spacing:0px;writing-mode:lr-tb;text-anchor:start;fill:#ffffff;fill-opacity:1;stroke:none;font-family:Dustismo;-inkscape-font-specification:Dustismo Bold"
     id="path4040-2"
     inkscape:connector-curvature="0" /><path
     style="font-size:144px;font-style:normal;font-variant:normal;font-weight:bold;font-stretch:normal;text-align:center;line-height:125%;letter-spacing:0px;word-spacing:0px;writing-mode:lr-tb;text-anchor:middle;fill:#ffffff;fill-opacity:1;stroke:none;font-family:Dustismo;-inkscape-font-specification:Dustismo Bold"
     d="m 126.30444,1485.6954 c -9.51565,10e-5 -17.87502,3.5626 -25.09375,10.6875 -7.17188,7.1251 -10.78126,15.4219 -10.78125,24.9375 -1e-5,9.5156 3.54687,17.8281 10.625,24.9062 7.07811,7.0781 15.39059,10.625 24.90625,10.625 9.11103,0 16.58644,-3.4982 22.4375,-10.4375 l 0,8.9375 15.99556,0 0,-11.5937 -4.65625,0 0,-55.8125 -11.27681,0 0,8.2187 c -5.53131,-6.9843 -12.92192,-10.4686 -22.15625,-10.4687 z m 0,11.5937 c 6.28121,0 11.5312,2.4532 15.75,7.375 4.03119,4.7344 6.03118,10.2813 6.03125,16.6563 -7e-5,6.3281 -2.07818,11.8594 -6.25,16.5937 -4.35942,4.875 -9.64067,7.3125 -15.875,7.3125 -6.32816,0 -11.9219,-2.3749 -16.75,-7.1562 -4.78126,-4.8281 -7.15627,-10.4219 -7.15625,-16.75 -2e-5,-6.3281 2.45311,-11.8906 7.375,-16.7188 4.92185,-4.875 10.54684,-7.3125 16.875,-7.3125 z"
     id="path3962"
     inkscape:connector-curvature="0"
     sodipodi:nodetypes="ccssscccccccccscccscscs" /><path
     sodipodi:nodetypes="ccccccc"
     d="m 433.60678,1487.1824 20.32031,0 0,68.2031 -11.60156,0 0,-56.6016 -8.71875,0 0,-11.6015"
     style="font-size:144px;font-style:normal;font-variant:normal;font-weight:bold;font-stretch:normal;text-align:start;line-height:125%;letter-spacing:0px;word-spacing:0px;writing-mode:lr-tb;text-anchor:start;fill:#ffffff;fill-opacity:1;stroke:none;font-family:Dustismo;-inkscape-font-specification:Dustismo Bold"
     id="path4336"
     inkscape:connector-curvature="0" /></g></svg>